<?xml version="1.0" encoding="UTF-8"?>
<svg width="249px" height="42px" viewBox="0 0 249 42" version="1.1" xmlns="http://www.w3.org/2000/svg" xmlns:xlink="http://www.w3.org/1999/xlink">
    <!-- Generator: Sketch 51.3 (57544) - http://www.bohemiancoding.com/sketch -->
    <title>seu-logo copy</title>
    <desc>Created with Sketch.</desc>
    <defs></defs>
    <g id="Design" stroke="none" stroke-width="1" fill="none" fill-rule="evenodd">
        <g id="New-Homepage-Desin" transform="translate(-57.000000, -5430.000000)">
            <g id="Content" transform="translate(-44.000000, 120.000000)">
                <g id="FOOTER" transform="translate(5.000000, 5239.000000)">
                    <g id="seu-logo-copy" transform="translate(96.000000, 71.000000)">
                        <path d="M45.1457266,31.0921286 C45.1457266,28.9317582 44.9570396,28.8675408 43.9747386,28.7282011 L43.618678,28.670042 C43.471991,28.5222208 43.4933045,28.1787182 43.661305,28.0987494 C44.4956653,28.1363105 45.4372199,28.158726 46.3568342,28.158726 C47.297762,28.158726 48.2380628,28.1375222 49.1589309,28.0987494 C49.3294388,28.1793241 49.3476179,28.5222208 49.2003041,28.670042 L48.7420641,28.7282011 C47.7566288,28.8675408 47.5698223,28.9317582 47.5698223,31.0921286 L47.5698223,35.7503137 C47.5698223,38.5607339 48.4524515,40.9167857 51.3554738,40.9167857 C54.0961374,40.9167857 55.2232448,38.9048423 55.2232448,35.8096845 L55.2232448,33.2652213 C55.2232448,31.7397551 55.203185,29.8477649 54.8239303,29.2564802 C54.6377507,28.9475096 54.3055111,28.8093816 53.7795695,28.7275953 L53.3627027,28.6694362 C53.1708813,28.521615 53.1953292,28.1569086 53.4028222,28.0981436 C54.1143166,28.1357047 54.9098111,28.1581202 55.7241117,28.1581202 C56.6004722,28.1581202 57.1690408,28.1369164 57.9407144,28.0981436 C58.1055805,28.1999221 58.1450731,28.521615 57.9795801,28.6694362 L57.5213402,28.7724263 C57.1251601,28.853001 56.7496666,28.9311524 56.6004722,29.2564802 C56.3096057,29.868363 56.3096057,31.6549396 56.3096057,33.2652213 L56.3096057,35.6860963 C56.3096057,37.5368904 56.0199931,39.2489506 54.9304978,40.3909299 C53.8416293,41.5316976 52.2763418,41.9115496 50.8320396,41.9115496 C48.865557,41.9115496 47.4883296,41.5104937 46.5260883,40.6114501 C45.5882949,39.7390627 45.1457266,38.3135575 45.1457266,36.2567831 L45.1457266,31.0921286 L45.1457266,31.0921286 Z" id="Shape" fill="#F4F4F4"></path>
                        <path d="M81.0921762,38.1299926 C81.0921762,38.7442988 81.0921762,41.2445368 81.1548629,41.7140508 C80.9862356,41.9363884 80.6909811,42.0145398 80.4427417,41.9981825 C80.1079946,41.5698646 79.5018139,40.8798304 77.9967056,39.2138128 L73.1065141,33.7765373 C71.7449584,32.2916613 71.0785985,31.5156 70.7231647,31.2078411 C70.6573437,31.2078411 70.6573437,31.436237 70.6573437,32.5085465 L70.6573437,36.4827556 C70.6573437,38.004587 70.6805378,39.8790082 71.0347178,40.4914968 C71.2284198,40.7931975 71.5800923,40.9167857 72.0985115,40.9967545 L72.5617664,41.0621836 C72.7498266,41.202129 72.7278863,41.5874335 72.5216469,41.6480159 C71.7455853,41.6104548 70.9312847,41.5874335 70.1382976,41.5874335 C69.2606834,41.5874335 68.695876,41.6092432 67.9624413,41.6480159 C67.7931872,41.5462374 67.756202,41.2039465 67.9198143,41.0621836 L68.3799349,40.960405 C68.7805031,40.894976 69.1553697,40.8150071 69.3008029,40.4914968 C69.5753708,39.855381 69.5753708,38.0930373 69.5753708,36.4827556 L69.5753708,31.6543338 C69.5753708,30.0682851 69.5973111,29.7453806 68.8845631,29.1528842 C68.6551296,28.9681077 68.0671281,28.8093816 67.7743811,28.7481933 L67.4590669,28.6851876 C67.3136337,28.5652343 67.3368278,28.1563027 67.543694,28.0969319 C68.3398154,28.1775066 69.48949,28.1563027 70.0104167,28.1563027 C70.4504775,28.1563027 70.9525982,28.1357047 71.4509576,28.0969319 C71.8088988,28.9681077 74.0863076,31.5355922 74.8184886,32.3031719 L76.913479,34.5065559 C77.7885857,35.4413432 79.7325011,37.600502 79.9412479,37.7192436 C80.0033077,37.6586611 80.0033077,37.5580942 80.0033077,37.2351898 L80.0033077,33.2658272 C80.0033077,31.7403609 79.9851286,29.8689688 79.610262,29.257086 C79.4171868,28.9481155 79.0818128,28.832403 78.5627668,28.749405 L78.0850939,28.6863992 C77.8951531,28.5446363 77.914586,28.1575144 78.1258403,28.0981436 C78.9376334,28.1357047 79.7080532,28.1575144 80.5273688,28.1575144 C81.4244158,28.1575144 81.9697903,28.1363105 82.7232848,28.0981436 C82.887524,28.1999221 82.9326585,28.5434246 82.7621506,28.6863992 L82.2838508,28.7869661 C81.8839095,28.853001 81.532237,28.9311524 81.3849232,29.2558743 C81.092803,29.8841144 81.092803,31.6549396 81.092803,33.2646155 L81.0921762,38.1299926 L81.0921762,38.1299926 Z" id="Shape" fill="#F4F4F4"></path>
                        <path d="M97.7317408,38.6588775 C97.7317408,40.8162188 97.9154129,40.8798304 98.9039826,40.9967545 L99.3609688,41.0621836 C99.5095364,41.202129 99.487596,41.5686529 99.3195956,41.6480159 C98.4006082,41.6104548 97.4565461,41.5874335 96.5394393,41.5874335 C95.6204519,41.5874335 94.6394046,41.6092432 93.7172829,41.6480159 C93.5486556,41.5686529 93.5311033,41.2039465 93.6765365,41.0621836 L94.1366571,40.9967545 C95.1189581,40.8798304 95.3063914,40.8150071 95.3063914,38.6588775 L95.3063914,31.0921286 C95.3063914,28.9317582 95.1189581,28.8675408 94.1366571,28.749405 L93.6765365,28.6863992 C93.5317302,28.5446363 93.5492824,28.1787182 93.7172829,28.0981436 C94.6394046,28.1357047 95.5790786,28.1575144 96.5394393,28.1575144 C97.4565461,28.1575144 98.4006082,28.1363105 99.3195956,28.0981436 C99.4882229,28.1787182 99.5101633,28.5434246 99.3609688,28.6863992 L98.9039826,28.749405 C97.9154129,28.8675408 97.7317408,28.9317582 97.7317408,31.0921286 L97.7317408,38.6588775 L97.7317408,38.6588775 Z" id="Shape" fill="#F4F4F4"></path>
                        <path d="M119.442662,36.5421264 C118.603286,38.3953438 117.623493,40.7756285 117.264925,41.8182526 C117.222925,41.8739885 117.052417,41.9115496 116.909491,41.9115496 C116.762804,41.9115496 116.617371,41.8739885 116.510803,41.8182526 C116.262564,40.9973603 115.926563,40.0032022 115.552323,39.1477779 L111.893926,30.5808127 C111.306551,29.2164957 111.119745,28.9311524 110.279116,28.7730322 L109.781383,28.670042 C109.63407,28.5222208 109.63407,28.1575144 109.843443,28.0987494 C110.660251,28.1363105 111.556671,28.158726 112.374733,28.158726 C113.315034,28.158726 114.027782,28.1375222 115.133576,28.0987494 C115.322263,28.2180968 115.34295,28.5446363 115.151755,28.6870051 L114.633336,28.8099875 C114.171335,28.9105543 114.004588,29.0147562 114.004588,29.1759055 C114.004588,29.3612878 114.171335,29.8041456 115.029516,31.8839413 L116.529609,35.5049548 C116.909491,36.4197499 117.471791,37.6192825 117.682418,38.0948548 C118.812033,35.5261586 120.068902,32.7169501 121.175323,29.9531784 C121.507562,29.1389502 121.447383,28.9711368 120.816128,28.8336146 L120.215589,28.6882167 C120.068275,28.5240383 120.083947,28.2017396 120.256962,28.0999611 C121.108248,28.1375222 121.826011,28.1593319 122.494251,28.1593319 C123.239597,28.1593319 123.934166,28.138128 124.52154,28.0999611 C124.688287,28.2017396 124.662585,28.5228266 124.559779,28.6882167 L124.038852,28.7887836 C123.555538,28.8917738 123.097925,29.0347484 122.744372,29.6242157 C122.157624,30.603834 121.554577,31.9633043 120.608635,34.0176555 L119.442662,36.5421264 L119.442662,36.5421264 Z" id="Shape" fill="#F4F4F4"></path>
                        <path d="M134.895567,31.0921286 C134.895567,28.9317582 134.710641,28.8675408 133.72834,28.7282011 L133.390458,28.6870051 C133.245652,28.5458479 133.271353,28.1793241 133.433712,28.0987494 C134.226699,28.1363105 135.212761,28.158726 136.129241,28.158726 L140.123013,28.158726 C141.465136,28.158726 142.675616,28.1375222 142.947677,28.0987494 C143.03105,28.4428578 143.155797,30.0543511 143.278036,30.9231036 C143.195916,31.0921286 142.78093,31.1302956 142.615437,31.0048899 C142.275048,29.8295902 141.959107,29.3206976 141.294628,29.1540958 C140.81194,29.0147562 140.190087,28.9693193 139.624653,28.9693193 L138.224232,28.9693193 C137.320916,28.9693193 137.320916,29.0141503 137.320916,30.1700636 L137.320916,33.6087239 C137.320916,34.1424553 137.34411,34.1624475 137.825544,34.1624475 L138.828532,34.1624475 C140.648954,34.1624475 141.006896,34.1424553 141.14606,33.2658272 L141.296508,32.5770046 C141.465762,32.4291834 141.855047,32.4291834 141.961614,32.5933619 C141.944689,33.1458739 141.901435,33.8783158 141.901435,34.6325674 C141.901435,35.4013588 141.942808,36.1150201 141.961614,36.7668874 C141.855047,36.9044095 141.465762,36.9044095 141.296508,36.7814271 L141.14606,35.9708339 C141.005015,35.1154096 140.648954,35.076031 138.828532,35.076031 L137.825544,35.076031 C137.34411,35.076031 137.320916,35.1148038 137.320916,35.624908 L137.320916,38.208144 C137.320916,39.2471332 137.36605,39.9783634 137.676977,40.3297417 C137.930231,40.6090268 138.283157,40.7732052 140.040893,40.7732052 C142.689407,40.8125838 143.155797,40.2243282 143.889231,38.5734562 C144.077918,38.4341166 144.428964,38.4910641 144.554964,38.6964386 C144.428964,39.5536804 143.96947,41.0961097 143.676096,41.6455926 C142.760243,41.6080315 140.956746,41.5850102 138.51071,41.5850102 L136.129241,41.5850102 C135.212761,41.5850102 133.934579,41.6068199 132.998666,41.6455926 C132.828785,41.5662296 132.803084,41.2015232 132.955412,41.0597603 L133.72834,40.9773681 C134.710641,40.8755896 134.895567,40.8125838 134.895567,38.6546367 L134.895567,31.0921286 L134.895567,31.0921286 L134.895567,31.0921286 Z" id="Shape" fill="#F4F4F4"></path>
                        <path d="M155.792187,38.6588775 C155.792187,40.8162188 155.602246,40.8798304 154.616811,40.9967545 L154.159824,41.0621836 C153.96863,41.202129 154.036332,41.5686529 154.201198,41.6480159 C155.1672,41.6104548 156.101232,41.5874335 157.027115,41.5874335 C157.94673,41.5874335 158.888284,41.6092432 159.805391,41.6480159 C159.96963,41.5686529 159.994078,41.2039465 159.844257,41.0621836 L159.384136,40.9967545 C158.403716,40.8798304 158.216283,40.8150071 158.216283,38.6588775 L158.216283,36.0544377 C158.216283,35.6273313 158.231954,35.6049158 158.862583,35.6049158 C159.556525,35.6049158 159.783451,35.6867022 160.160198,36.2991908 C160.661065,37.0903977 161.245932,38.2099615 161.810739,39.0678091 C163.087668,40.9610109 164.172775,41.7516119 166.184392,41.7516119 C166.912812,41.7516119 167.314634,41.6910295 167.56162,41.634082 C167.621799,41.5323034 167.621799,41.3051192 167.520246,41.2233329 C167.270753,41.2045523 166.655797,41.077935 166.079079,40.5950928 C165.089882,39.7990393 164.044267,38.0724393 162.374293,35.3213899 C162.292173,35.2032541 162.254561,35.0354407 162.374293,34.9772816 C163.399221,34.5677442 164.880508,33.6317452 164.880508,31.7597473 C164.880508,30.2948635 164.11385,29.3376607 163.042534,28.7875719 C162.122919,28.296854 160.703065,28.0987494 159.074464,28.0987494 C157.355594,28.0987494 155.579052,28.1581202 154.263884,28.2811026 C154.095884,28.3865161 154.095884,28.7069973 154.241944,28.853001 L154.782931,28.9105543 C155.768366,29.0147562 155.79156,29.2564802 155.79156,31.2084469 L155.79156,38.6588775 L155.792187,38.6588775 L155.792187,38.6588775 Z M158.215656,29.9065299 C158.215656,28.9693193 158.231327,28.9099485 159.325838,28.9099485 C161.139365,28.9099485 162.205666,30.3148557 162.205666,31.9251374 C162.205666,33.8571119 161.265365,34.8312779 159.220524,34.8312779 C158.215029,34.8312779 158.215029,34.7937167 158.215029,34.1424553 L158.215029,29.9065299 L158.215656,29.9065299 Z" id="Shape" fill="#F4F4F4"></path>
                        <path d="M177.184032,41.0633952 C176.806658,40.6314423 176.537732,39.2271409 176.560926,37.9694491 C176.677523,37.7634688 177.041106,37.7434766 177.207226,37.8888745 C177.5846,38.926652 178.711708,41.0991389 180.76031,41.0991389 C182.349418,41.0991389 183.245839,40.1643516 183.245839,38.926652 C183.245839,37.7634688 182.684792,36.8274698 181.115744,35.9732572 L180.216816,35.4819334 C178.64714,34.633779 177.267406,33.3888096 177.267406,31.5592194 C177.267406,29.5394002 178.817648,27.8297633 181.868611,27.8297633 C182.952465,27.8297633 183.750467,28.0757281 184.729633,28.2605046 C184.963455,28.7063914 185.171575,30.0531395 185.171575,31.004284 C185.066261,31.1939071 184.691395,31.2078411 184.503334,31.0672898 C184.187393,30.0070968 183.456466,28.6464148 181.681178,28.6464148 C180.007442,28.6464148 179.316008,29.7029729 179.316008,30.7843697 C179.316008,31.6373707 179.92595,32.5521658 181.304431,33.2658272 L182.600792,33.9401099 C183.95984,34.633779 185.459934,35.8914709 185.459934,37.9464278 C185.459934,40.2655243 183.647661,41.9115496 180.614877,41.9115496 C178.692902,41.9121554 177.606541,41.3051192 177.184032,41.0633952 L177.184032,41.0633952 Z" id="Shape" fill="#F4F4F4"></path>
                        <path d="M200.002628,38.6588775 C200.002628,40.8162188 200.190061,40.8798304 201.165466,40.9967545 L201.631856,41.0621836 C201.778542,41.202129 201.755348,41.5686529 201.590482,41.6480159 C200.669614,41.6104548 199.72806,41.5874335 198.809699,41.5874335 C197.891339,41.5874335 196.907157,41.6092432 195.983781,41.6480159 C195.820796,41.5686529 195.798856,41.2039465 195.94805,41.0621836 L196.405663,40.9967545 C197.388591,40.8798304 197.574771,40.8150071 197.574771,38.6588775 L197.574771,31.0921286 C197.574771,28.9317582 197.388591,28.8675408 196.405663,28.749405 L195.94805,28.6863992 C195.798856,28.5446363 195.820796,28.1787182 195.983781,28.0981436 C196.907157,28.1357047 197.849965,28.1575144 198.809699,28.1575144 C199.72806,28.1575144 200.669614,28.1363105 201.590482,28.0981436 C201.755975,28.1787182 201.779169,28.5434246 201.631856,28.6863992 L201.165466,28.749405 C200.189434,28.8675408 200.002628,28.9317582 200.002628,31.0921286 L200.002628,38.6588775 L200.002628,38.6588775 Z" id="Shape" fill="#F4F4F4"></path>
                        <path d="M217.237716,29.8689688 C217.237716,29.0147562 217.215776,28.9699251 216.672282,28.9699251 L215.505682,28.9699251 C213.579946,28.9699251 213.012631,29.1958977 212.237823,30.845558 C212.09427,30.9661171 211.654836,30.9085638 211.57209,30.7025834 C211.926897,29.6066468 212.237823,28.3416851 212.387644,27.630447 C212.425883,27.5674413 212.513644,27.5504782 212.615197,27.5504782 C212.704839,27.5504782 212.786332,27.5668354 212.824571,27.630447 C212.929884,28.138128 213.226392,28.1593319 214.647501,28.1593319 L223.174149,28.1593319 C224.205346,28.1593319 224.511257,28.0993552 224.763258,27.630447 C224.8529,27.5904626 224.933139,27.5504782 225.017766,27.5504782 C225.138751,27.5504782 225.242811,27.5892509 225.287319,27.6552858 C225.080452,28.4804189 224.909945,30.2373101 224.973885,30.8867541 C224.866064,31.0491151 224.511257,31.0939461 224.32257,30.9449132 C224.053017,29.3624995 223.655583,28.9711368 221.419548,28.9711368 L220.227246,28.9711368 C219.685006,28.9711368 219.663066,29.015362 219.663066,29.8695746 L219.663066,38.660695 C219.663066,40.8180363 219.850499,40.8816478 220.838442,40.9834264 L221.586294,41.0652127 C221.732981,41.2051582 221.713548,41.571682 221.547429,41.651045 C220.33256,41.6134839 219.391632,41.5904626 218.475779,41.5904626 C217.553657,41.5904626 216.568222,41.6122723 215.228606,41.651045 C215.060606,41.571682 215.047442,41.1597213 215.191621,41.0652127 L216.070489,40.9634342 C217.049029,40.8816478 217.238343,40.8180363 217.238343,38.660695 L217.238343,29.8689688 L217.237716,29.8689688 L217.237716,29.8689688 Z" id="Shape" fill="#F4F4F4"></path>
                        <path d="M239.569862,37.4581332 C239.569862,36.3149422 239.486489,36.0156649 238.901622,34.9330564 L236.392899,30.1088753 C235.935286,29.2346705 235.767286,28.9905232 234.825731,28.8093816 L234.282237,28.6863992 C234.15749,28.5446363 234.200117,28.1575144 234.366864,28.0981436 C235.265792,28.1357047 236.140898,28.1575144 237.002841,28.1575144 C237.919948,28.1575144 239.194369,28.1363105 239.675803,28.0981436 C239.84255,28.1787182 239.885177,28.5434246 239.719684,28.6863992 L239.091563,28.7869661 C238.757442,28.8317971 238.653382,28.8899563 238.653382,29.0523173 C238.653382,29.2164957 238.736756,29.4382275 239.028249,30.1088753 C239.865744,31.8578909 240.619865,33.5130036 241.454852,35.0003029 C242.313034,33.4469687 243.090349,32.0281276 243.900888,30.4953914 C244.253188,29.8023281 244.466323,29.3594703 244.466323,29.1371327 C244.466323,28.9311524 244.276382,28.8675408 243.983008,28.8317971 L243.359902,28.6863992 C243.206946,28.5446363 243.206946,28.1999221 243.41632,28.0981436 C244.338442,28.1357047 244.985996,28.1575144 245.610355,28.1575144 C246.256655,28.1575144 246.926777,28.1363105 247.597525,28.0981436 C247.788719,28.1999221 247.788719,28.5210091 247.641405,28.6863992 L247.031463,28.8093816 C246.091163,28.9693193 245.842923,29.3594703 244.756562,31.1478645 C244.04256,32.3037777 243.415693,33.4275823 242.769393,34.5671383 C242.146287,35.6273313 241.994585,36.0544377 241.994585,37.4332944 L241.994585,38.6576658 C241.994585,40.815613 242.183272,40.8786187 243.206946,40.9810031 L244.004948,41.0627894 C244.148501,41.2027349 244.129695,41.5692587 243.963575,41.6486217 C242.668467,41.6110606 241.725659,41.5880393 240.803537,41.5880393 C239.841296,41.5880393 238.902249,41.609849 237.768246,41.6486217 C237.604007,41.5692587 237.58332,41.2045523 237.733768,41.0627894 L238.403262,40.9810031 C239.382429,40.8786187 239.568609,40.815613 239.568609,38.6576658 L239.568609,37.4581332 L239.569862,37.4581332 L239.569862,37.4581332 Z" id="Shape" fill="#F4F4F4"></path>
                        <path d="M75.1601312,21.238392 C75.1601312,20.1321563 75.9669094,19.311264 77.0375987,19.311264 C78.1766165,19.311264 78.9075437,20.1903155 78.9075437,21.238392 C78.9075437,22.2773811 78.1766165,23.0298152 77.0375987,23.0298152 C76.067835,23.0298152 75.1601312,22.3470509 75.1601312,21.238392 L75.1601312,21.238392 Z" id="Shape" fill="#F4F4F4"></path>
                        <path d="M233.674803,3.56103683 C233.674803,5.8165217 231.867544,7.37773162 229.758136,7.99082609 C229.493598,7.86117963 229.360075,7.53888096 229.525568,7.31109092 C230.761124,6.75554979 232.067515,5.84560128 232.067515,4.51157558 C232.067515,3.27024103 231.030676,2.7195465 230.392526,2.68137955 C229.92739,2.64927085 229.493598,2.3917954 229.493598,1.7702194 C229.493598,1.28495391 229.79136,0.43740534 231.099005,0.43740534 C232.463695,0.43740534 233.674803,1.87199792 233.674803,3.56103683 L233.674803,3.56103683 Z" id="Shape" fill="#F4F4F4"></path>
                        <path d="M49.6792307,23.0910035 C46.867731,23.0910035 45.0930698,22.2483015 44.4580532,21.8878359 C44.0556045,21.1741746 43.6205586,18.8611364 43.5547375,17.3265827 C43.7221111,17.0963694 44.2273661,17.0345753 44.360262,17.2296508 C44.8598752,18.8914276 46.2314607,22.0853347 50.112396,22.0853347 C52.92703,22.0853347 54.2942275,20.2914882 54.2942275,18.3383097 C54.2942275,16.9049288 53.9945849,15.3055519 51.5529369,13.7709983 L48.3753468,11.75542 C46.6959694,10.6837163 44.7583227,8.82262322 44.7583227,6.15517764 C44.7583227,3.05941408 47.2350752,0.547665412 51.5861609,0.547665412 C52.6192382,0.547665412 53.8272114,0.713661344 54.6954225,0.975377559 C55.132349,1.07533861 55.6043801,1.16984725 55.8682912,1.16984725 C56.1698143,1.95136094 56.4744718,3.77428707 56.4744718,5.14405643 C56.3390685,5.33731447 55.8005895,5.4366697 55.6338428,5.24341166 C55.2006776,3.68220174 54.2936006,1.55757497 51.0834134,1.55757497 C47.8061513,1.55757497 47.1015525,3.68220174 47.1015525,5.17616513 C47.1015525,7.06936691 48.7100939,8.40036349 49.9475299,9.18369466 L52.6192382,10.8127569 C54.7317808,12.0795361 56.8079652,13.9703146 56.8079652,17.066684 C56.8073383,20.651348 54.027182,23.0910035 49.6792307,23.0910035 L49.6792307,23.0910035 Z" id="Shape" fill="#F4F4F4"></path>
                        <path d="M69.7239383,17.6864425 C69.7239383,21.1087455 69.7891325,21.5619023 71.7317942,21.756372 L72.8031103,21.8569389 C73.0049616,21.9871911 72.9366331,22.5681769 72.7360355,22.6687438 C70.8253441,22.605738 69.6882069,22.5681769 68.3523528,22.5681769 C67.0152449,22.5681769 65.8461374,22.605738 63.7009977,22.6687438 C63.5022807,22.5681769 63.4352059,22.0180882 63.7009977,21.8569389 L64.9027022,21.756372 C66.8140205,21.5952226 66.9795134,21.1093513 66.9795134,17.6864425 L66.9795134,3.12302566 C66.9795134,2.1179627 66.9795134,2.08221905 65.9765258,2.08221905 L64.1341629,2.08221905 C62.6967563,2.08221905 60.8587815,2.14825393 60.0231674,2.89765892 C59.2182698,3.60950279 58.8828959,4.33103985 58.5168054,5.14405643 C58.2478793,5.33731447 57.7789826,5.17616513 57.6454599,4.91687221 C58.1795508,3.45077675 58.6822983,1.3685577 58.9186273,0.0636115799 C59.0176723,-0.00545242113 59.4533451,-0.0351378251 59.5542707,0.0636115799 C59.7580026,1.10623567 60.8600352,1.07533861 62.3977406,1.07533861 L75.9468497,1.07533861 C77.7591229,1.07533861 78.056258,1.00566879 78.5602593,0.158120213 C78.7244985,0.094508633 79.0930965,0.126617335 79.1639325,0.255657969 C78.7909464,1.59574192 78.5602593,4.23229045 78.65617,5.20645636 C78.5220204,5.47483664 77.9547055,5.47483664 77.7860782,5.27430871 C77.6864063,4.46250379 77.4532117,3.25267212 76.9523448,2.8970531 C76.1819249,2.34030032 74.9087575,2.08161322 73.0657677,2.08161322 L70.6924483,2.08161322 C69.68758,2.08161322 69.7239383,2.11735687 69.7239383,3.18966636 L69.7239383,17.6864425 L69.7239383,17.6864425 L69.7239383,17.6864425 Z" id="Shape" fill="#F4F4F4"></path>
                        <path d="M93.2559086,5.95525553 C93.2559086,2.5717253 93.192595,2.08161322 91.2142019,1.85806396 L90.6782304,1.78778831 C90.4757522,1.6569302 90.5434539,1.07473279 90.7465589,0.974771734 C92.1839655,1.03777749 93.319849,1.07473279 94.6933152,1.07473279 L100.985182,1.07473279 C103.125934,1.07473279 105.102446,1.07473279 105.502387,0.974771734 C105.699851,1.52728374 105.901075,3.87121901 106.033971,5.30459994 C105.901075,5.50391622 105.368238,5.56571033 105.198984,5.37305812 C104.696863,3.84274525 104.392206,2.69773681 102.660798,2.27911203 C101.955572,2.11675105 100.884256,2.08161322 99.4111182,2.08161322 L96.9995599,2.08161322 C95.9984528,2.08161322 95.9984528,2.1476481 95.9984528,3.38171275 L95.9984528,9.90038513 C95.9984528,10.8121511 96.1012591,10.8121511 97.1023661,10.8121511 L99.0406397,10.8121511 C100.446703,10.8121511 101.483541,10.7473279 101.889125,10.6134407 C102.286558,10.4844 102.522887,10.2929595 102.691515,9.47327881 L102.957933,8.13985893 C103.125307,7.94781254 103.693249,7.94781254 103.828025,8.17075598 C103.828025,8.95348133 103.693249,10.2257129 103.693249,11.46523 C103.693249,12.6350772 103.828025,13.8703535 103.828025,14.5931023 C103.693249,14.8130166 103.125307,14.8130166 102.957933,14.6227877 L102.659544,13.3523735 C102.52226,12.7659353 102.285931,12.2776407 101.617064,12.1158856 C101.151929,11.9856333 100.347031,11.948678 99.0412665,11.948678 L97.1023661,11.948678 C96.1006322,11.948678 95.9984528,11.9862391 95.9984528,12.8277295 L95.9984528,17.4271496 C95.9984528,19.1513263 96.1012591,20.253927 96.6322156,20.8124973 C97.0371719,21.2008308 97.7367558,21.5606906 100.684286,21.5606906 C103.258829,21.5606906 104.232354,21.4304384 104.967043,21.0717902 C105.565701,20.7440391 106.467136,19.6020598 107.341616,17.9075685 C107.576691,17.747025 108.040573,17.8481977 108.17723,18.1377818 C107.943409,19.2791553 107.106541,21.7842399 106.671495,22.6669263 C103.660651,22.6033147 100.684286,22.5663594 97.7079199,22.5663594 L94.6926883,22.5663594 C93.2559086,22.5663594 92.1187713,22.6033147 90.141632,22.6669263 C89.9410345,22.5663594 89.8708253,22.0471678 90.0751841,21.8551214 L91.1797242,21.7545545 C93.0891619,21.5934052 93.2559086,21.1075339 93.2559086,17.684625 L93.2559086,5.95525553 L93.2559086,5.95525553 L93.2559086,5.95525553 Z" id="Shape" fill="#F4F4F4"></path>
                        <path d="M112.162225,17.6864425 C112.162225,21.1087455 112.095777,21.4964732 110.155623,21.756372 L109.387084,21.8569389 C109.182098,22.0483794 109.252307,22.5681769 109.452278,22.6687438 C111.026342,22.605738 112.228673,22.5681769 113.632856,22.5681769 C114.804471,22.5681769 116.948984,22.8298931 119.087855,22.8298931 C121.665533,22.8298931 124.409331,22.4106625 126.580799,21.2656541 C130.395913,19.2500757 132.440128,15.695703 132.440128,11.5676143 C132.440128,7.26201913 130.162719,3.55376693 125.647394,1.95257259 C123.470911,1.17105889 121.099472,0.976589208 118.284838,0.976589208 C115.440741,0.976589208 112.730167,1.07655026 109.883563,1.2376996 C109.549442,1.36976935 109.586428,1.89017266 109.853473,2.05011035 L110.589415,2.1500714 C111.992971,2.34211779 112.162852,3.02306461 112.162852,5.30702324 L112.162852,17.6864425 L112.162225,17.6864425 Z M114.907277,4.91626639 C114.907277,3.45017093 114.972471,2.63109611 115.242024,2.44147302 C115.50907,2.24700333 116.579132,1.9798347 118.553764,1.9798347 C127.32301,1.9798347 129.095791,8.042927 129.095791,11.6251677 C129.095791,17.6858367 126.183365,21.8242243 119.687767,21.8242243 C117.583373,21.8242243 116.310206,21.4952616 115.576771,20.4859579 C115.004441,19.7026267 114.907277,18.6606084 114.907277,16.9382492 L114.907277,4.91626639 L114.907277,4.91626639 Z" id="Shape" fill="#F4F4F4"></path>
                        <path d="M131.17699,1.75628543 C130.978273,1.55757497 131.01087,1.10623567 131.278542,0.975377559 C132.179978,1.03838331 133.683205,1.07533861 134.726939,1.07533861 C135.66536,1.07533861 137.367304,1.03777749 138.533904,0.975377559 C138.834174,1.07533861 138.804711,1.52788957 138.603486,1.75628543 L137.833067,1.81807954 C137.130348,1.88896101 136.726019,2.0834307 136.726019,2.3693799 C136.726019,2.76861829 137.428737,4.42676014 138.470591,6.73919252 C140.342416,10.8133628 142.320182,14.8832922 144.260337,18.8920334 C145.056458,17.259942 145.929057,15.4364101 146.833,13.6122723 C147.097538,12.9925137 147.368971,12.4381843 147.368971,12.2794582 C147.368971,12.1177031 147.266165,11.820849 147.096911,11.4313038 C145.929057,8.82383487 144.689741,6.21878922 143.426603,3.61071444 C142.920721,2.60322818 142.414213,1.91864641 141.278956,1.81929119 L140.477193,1.75689125 C140.245879,1.49880999 140.277849,1.10684149 140.544267,0.975983383 C141.516539,1.03898914 142.784691,1.07594444 144.126814,1.07594444 C145.798042,1.07594444 147.038612,1.03838331 147.804644,0.975983383 C148.035958,1.07594444 148.074197,1.49880999 147.870465,1.75689125 L147.003508,1.81868536 C145.695863,1.91804059 145.630042,2.14946558 146.294521,3.61010862 C146.966523,5.20766801 147.93754,7.2614133 148.871572,9.28304989 C149.509723,8.008395 150.112769,6.77675365 150.847458,5.01622744 C152.052297,2.24821498 151.886804,1.88956684 150.815488,1.81868536 L149.809993,1.75689125 C149.579932,1.42974599 149.645753,1.07594444 149.877067,0.975983383 C150.778502,1.03898914 151.783371,1.07594444 153.024568,1.07594444 C154.126601,1.07594444 155.466843,1.03838331 156.233501,0.975983383 C156.46983,1.07594444 156.500547,1.49880999 156.304337,1.75689125 L155.33332,1.81868536 C153.92663,1.91804059 153.322957,3.38353023 152.585761,4.72422 C151.886804,5.92799342 150.480114,8.76204076 149.976739,9.90220261 C149.807485,10.2269246 149.675843,10.5455883 149.675843,10.684928 C149.675843,10.8139686 149.747933,11.0762906 149.917187,11.4670475 C151.048682,13.9715262 152.21779,16.41724 153.323584,18.8926392 C154.365437,16.6068631 155.335201,14.331386 156.335681,12.0183478 C156.975085,10.4553204 158.777956,6.11761651 159.007389,5.5354191 C159.450584,4.36375438 160.023541,2.96066468 160.023541,2.57293695 C160.023541,2.11856852 159.614823,1.85927561 158.913359,1.81868536 L157.946103,1.75689125 C157.679057,1.46064304 157.70852,1.10684149 157.974312,0.975983383 C159.244972,1.03898914 160.151422,1.07594444 161.187007,1.07594444 C162.455159,1.07594444 163.434953,1.03838331 164.30191,0.975983383 C164.568955,1.07594444 164.602179,1.49880999 164.367104,1.75689125 L163.732714,1.81868536 C162.051456,1.98165217 161.756829,2.96066468 159.752107,7.49041499 L157.307325,12.9919079 C155.872426,16.3160673 154.499587,19.5111861 153.12612,22.9977065 C153.027075,23.0607123 152.889791,23.0916093 152.724298,23.0916093 C152.557552,23.0916093 152.392686,23.0607123 152.249133,22.9977065 C151.187847,20.0976243 149.244558,16.0246657 148.202705,13.7413129 C147.004135,16.1228093 144.993771,20.292094 144.022754,22.9977065 C143.922455,23.0607123 143.787679,23.0916093 143.62344,23.0916093 C143.454185,23.0916093 143.291827,23.0607123 143.123826,22.9977065 C142.548362,21.6243022 141.246986,18.6921113 140.81194,17.7494483 C138.668054,13.2209096 136.59375,8.69358259 134.416013,4.1644381 C133.782877,2.82980657 133.382309,1.95196677 131.981888,1.81807954 L131.17699,1.75628543 L131.17699,1.75628543 Z" id="Shape" fill="#F4F4F4"></path>
                        <path d="M175.562953,19.4433338 C175.828745,20.2242416 175.997372,20.8143148 175.997372,21.1741746 C175.997372,21.4958674 175.533491,21.6933662 174.83328,21.756372 L173.85474,21.8569389 C173.622172,22.0180882 173.659784,22.5372798 173.925576,22.6687438 C174.894086,22.6390584 176.164746,22.5681769 177.772661,22.5681769 C179.278396,22.5681769 180.449384,22.605738 181.821596,22.6687438 C181.984582,22.5372798 182.055418,22.0180882 181.821596,21.8569389 L180.922669,21.756372 C179.478993,21.5952226 179.042067,21.1093513 178.073557,18.3013545 L173.491784,5.20645636 C172.989663,3.77428707 172.452438,2.27971786 172.016138,0.8457311 C171.954706,0.615517764 171.718377,0.547665412 171.520286,0.547665412 C171.14542,0.975377559 170.578732,1.55757497 169.778222,1.78839413 C169.878521,2.31061491 169.67667,2.92795015 169.206519,4.10203817 L165.795735,12.8986109 C164.390298,16.5462807 163.449997,18.6624259 162.851339,20.164265 C162.381189,21.3341123 161.642739,21.6933662 160.839722,21.7569778 L159.737689,21.8575447 C159.538346,22.0192998 159.602913,22.5378857 159.806018,22.6699554 C160.70808,22.6396642 161.914173,22.5693885 163.018713,22.5693885 C164.589642,22.6063438 165.631495,22.6063438 166.498453,22.6699554 C166.797469,22.5378857 166.797469,22.0192998 166.564274,21.8575447 L165.460988,21.7569778 C164.661732,21.693972 164.491224,21.4964732 164.491224,21.110563 C164.491224,20.7464624 164.72003,19.8728634 165.224659,18.4013155 L166.398781,14.9826475 C166.630095,14.300489 166.830692,14.2005279 167.669441,14.2005279 L172.72011,14.2005279 C173.725606,14.2005279 173.855367,14.300489 174.091696,15.0135445 L175.562953,19.4433338 L175.562953,19.4433338 Z M169.578879,6.44657925 C169.941208,5.47483664 170.277836,4.68665888 170.376881,4.52308624 L170.446463,4.52308624 C170.642045,4.91626639 170.943569,5.79652949 171.208107,6.57804319 L173.024768,11.8868839 C173.325037,12.767147 173.253574,12.8986109 172.283811,12.8986109 L168.166547,12.8986109 C167.235022,12.8986109 167.198037,12.8677139 167.463828,12.1170972 L169.578879,6.44657925 L169.578879,6.44657925 Z" id="Shape" fill="#F4F4F4"></path>
                        <path d="M186.178324,17.6864425 C186.178324,21.1087455 186.107488,21.5267645 184.16796,21.756372 L183.334227,21.8569389 C183.132376,22.0853347 183.196943,22.5681769 183.400048,22.6687438 C184.970977,22.605738 186.178324,22.5681769 187.579999,22.5681769 C188.923375,22.5681769 190.056751,22.605738 191.56374,22.6687438 C191.76183,22.5681769 191.83204,22.0180882 191.628935,21.8569389 L190.928724,21.756372 C188.985435,21.4958674 188.923375,21.1093513 188.923375,17.6864425 L188.923375,13.5807694 C188.923375,12.8986109 188.986062,12.8677139 190.494305,12.8677139 C191.832666,12.8677139 192.368638,13.1888009 192.866997,13.9097321 C193.906343,15.3752218 195.279183,17.6185902 196.148021,18.8235752 C198.523221,22.1162318 200.228927,22.9286425 203.07177,22.9286425 C203.709921,22.9286425 204.245892,22.8656368 204.547415,22.7650699 C204.714162,22.6384526 204.682192,22.374313 204.512937,22.3070665 C203.605861,22.2476957 202.774635,21.8872301 202.204812,21.3959064 C199.932418,19.5408715 198.154623,16.9382492 195.478526,12.7368558 C195.309272,12.4775629 195.14566,12.1461768 195.309272,11.948678 C196.979247,11.2974166 199.491731,9.60656021 199.491731,6.50776754 C199.491731,4.23229045 198.32137,2.76801246 196.713455,1.95136094 C195.177003,1.13834437 193.202998,0.975377559 191.128068,0.975377559 C187.848298,0.975377559 185.540173,1.07533861 183.667093,1.23648795 C183.400048,1.3685577 183.400048,1.88896101 183.630108,2.0488987 L184.703932,2.17854516 C186.076144,2.34151197 186.17707,2.89826475 186.17707,5.98797005 L186.17707,17.6858367 L186.178324,17.6858367 L186.178324,17.6864425 Z M188.923375,3.02185296 C188.923375,2.1179627 189.026182,1.98044052 191.099232,1.98044052 C194.806525,1.98044052 196.449544,4.42676014 196.449544,6.99727379 C196.449544,9.21519754 195.679124,10.3583885 194.777062,11.036912 C193.806045,11.75542 192.537892,11.8862781 191.328038,11.8862781 C189.622332,11.8862781 189.121466,11.8196374 189.026182,11.7239171 C188.923375,11.5942706 188.923375,11.2368341 188.923375,10.6461552 L188.923375,3.02185296 L188.923375,3.02185296 Z" id="Shape" fill="#F4F4F4"></path>
                        <path d="M207.726886,17.6864425 C207.726886,21.1087455 207.665453,21.4964732 205.727806,21.756372 L204.955506,21.8569389 C204.756162,22.0483794 204.819476,22.5681769 205.016939,22.6687438 C206.596644,22.605738 207.800856,22.5681769 209.203158,22.5681769 C210.372266,22.5681769 212.516152,22.8298931 214.660038,22.8298931 C217.234582,22.8298931 219.983395,22.4106625 222.159251,21.2656541 C225.964335,19.2500757 228.009176,15.695703 228.009176,11.5676143 C228.009176,7.26201913 225.734275,3.55376693 221.220204,1.95257259 C219.040586,1.17105889 216.664133,0.976589208 213.86329,0.976589208 C211.009163,0.976589208 208.299843,1.07655026 205.458253,1.2376996 C205.120372,1.36976935 205.153596,1.89017266 205.431298,2.05011035 L206.162225,2.1500714 C207.566408,2.34211779 207.729393,3.02306461 207.729393,5.30702324 L207.729393,17.6870483 L207.726886,17.6870483 L207.726886,17.6864425 Z M210.473191,4.91626639 C210.473191,3.45017093 210.540266,2.63109611 210.807312,2.44147302 C211.074357,2.24700333 212.149434,1.9798347 214.117798,1.9798347 C222.885163,1.9798347 224.661705,8.042927 224.661705,11.6251677 C224.661705,17.6858367 221.752414,21.8242243 215.25995,21.8242243 C213.151795,21.8242243 211.878001,21.4952616 211.143939,20.4859579 C210.575998,19.7026267 210.473191,18.6606084 210.473191,16.9382492 L210.473191,4.91626639 L210.473191,4.91626639 L210.473191,4.91626639 Z" id="Shape" fill="#F4F4F4"></path>
                        <path d="M241.110075,23.0910035 C238.300456,23.0910035 236.526422,22.2483015 235.893286,21.8878359 C235.49021,21.1741746 235.059552,18.8611364 234.987463,17.3265827 C235.154209,17.0963694 235.656957,17.0345753 235.792987,17.2296508 C236.290093,18.8914276 237.669828,22.0853347 241.550136,22.0853347 C244.357875,22.0853347 245.730087,20.2914882 245.730087,18.3383097 C245.730087,16.9049288 245.429818,15.3055519 242.987543,13.7709983 L239.805564,11.75542 C238.138098,10.6837163 236.196063,8.82262322 236.196063,6.15517764 C236.196063,3.05941408 238.672815,0.547665412 243.019513,0.547665412 C244.061366,0.547665412 245.259937,0.713661344 246.134416,0.975377559 C246.567582,1.07533861 247.035851,1.16984725 247.298509,1.16984725 C247.598778,1.95136094 247.907197,3.77428707 247.907197,5.14405643 C247.766152,5.33731447 247.235195,5.4366697 247.06218,5.24341166 C246.630268,3.68220174 245.730087,1.55757497 242.521153,1.55757497 C239.241384,1.55757497 238.537412,3.68220174 238.537412,5.17616513 C238.537412,7.06936691 240.143446,8.40036349 241.382762,9.18369466 L244.061366,10.8127569 C246.163879,12.0795361 248.239437,13.9703146 248.239437,17.066684 C248.239437,20.651348 245.459907,23.0910035 241.110075,23.0910035 L241.110075,23.0910035 Z" id="Shape" fill="#F4F4F4"></path>
                        <polygon id="Shape" points="5.73771607 18.3940456 4.94660958 24.9569432 2.28931925 31.7100697 3.9160398 31.3502099 8.56676803 17.5065126"></polygon>
                        <polygon id="Shape" points="4.88768406 31.1315072 11.6935819 29.8205028 11.4898501 10.2190489"></polygon>
                        <polygon id="Shape" points="11.4710441 5.2543165 11.4710441 8.19256567 12.6075544 7.88056601 12.6075544 4.98654204 13.6788706 4.68181228 13.6732288 3.59132805 12.6075544 3.89848111 12.6075544 2.43541477 11.4710441 2.7468086 11.4710441 4.18443031 10.5533104 4.46916786 10.5545641 5.52996668"></polygon>
                        <polygon id="Shape" points="18.4618678 15.0620105 15.3212628 16.0228482 12.6163306 10.0615345 13.4895567 29.7944524 22.3954599 31.6531222 19.0398394 24.1027305"></polygon>
                        <path d="M9.30772514,34.0128089 C8.21634923,34.668311 7.97061726,36.4312605 7.97061726,36.4312605 L7.97061726,41.7413129 L10.6793107,41.7413129 L10.6793107,36.4306547 C10.6799376,36.4312605 10.3984742,34.5913713 9.30772514,34.0128089 L9.30772514,34.0128089 Z" id="Shape" fill="#F4F4F4"></path>
                        <path d="M20.1995439,35.1081397 C19.2705266,35.742438 19.0555111,37.44844 19.0555111,37.44844 L19.0555111,41.7413129 L21.3642632,41.7413129 L21.3642632,37.44844 C21.3648901,37.44844 21.1285611,35.6618633 20.1995439,35.1081397 L20.1995439,35.1081397 Z" id="Shape" fill="#F4F4F4"></path>
                        <path d="M5.23434166,35.0148427 C4.3065781,35.6558051 4.0903089,37.355143 4.0903089,37.355143 L4.0903089,41.7413129 L6.3996879,41.7413129 L6.3996879,37.355143 C6.3996879,37.355143 6.16398581,35.5746246 5.23434166,35.0148427 L5.23434166,35.0148427 Z" id="Shape" fill="#F4F4F4"></path>
                        <path d="M16.1205186,34.0527933 C15.032277,34.7131421 14.7815301,36.4700333 14.7815301,36.4700333 L14.7815301,41.7413129 L17.4895967,41.7413129 L17.4895967,36.4700333 C17.4895967,36.4700333 17.2106407,34.6349907 16.1205186,34.0527933 L16.1205186,34.0527933 Z" id="Shape" fill="#F4F4F4"></path>
                        <path d="M0,1.31585097 L0,33.7825955 L0.711494345,32.9011208 L12.5737036,30.5983816 L23.1119692,32.6182007 L24.5794654,33.2185729 L27.6210254,38.902419 L25.2213775,40.8525683 L25.2213775,41.7413129 L32.2830372,41.7413129 L32.2830372,1.31585097 L0,1.31585097 L0,1.31585097 Z M11.4710441,4.18443031 L11.4710441,2.74741443 L12.6069276,2.43541477 L12.6069276,3.89848111 L13.6726019,3.59132805 L13.6782437,4.68181228 L12.6069276,4.98654204 L12.6069276,7.88056601 L11.4710441,8.19256567 L11.4710441,5.2543165 L10.5545641,5.52996668 L10.5533104,4.46916786 L11.4710441,4.18443031 L11.4710441,4.18443031 Z M2.28931925,31.7100697 L4.94598271,24.957549 L5.7370892,18.3946514 L8.56614117,17.5071184 L3.9160398,31.3508157 L2.28931925,31.7100697 L2.28931925,31.7100697 Z M4.88768406,31.1315072 L11.4892232,10.2190489 L11.6929551,29.819897 L4.88768406,31.1315072 L4.88768406,31.1315072 Z M12.0345977,10.0385131 C11.6051937,10.0385131 11.2572823,9.7022805 11.2572823,9.28789649 C11.2572823,8.87351248 11.6058205,8.53970315 12.0345977,8.53970315 C12.4602406,8.53970315 12.8062713,8.87351248 12.8062713,9.28789649 C12.8062713,9.7022805 12.4596137,10.0385131 12.0345977,10.0385131 L12.0345977,10.0385131 Z M13.4895567,29.7944524 L12.6163306,10.0615345 L15.3206359,16.0228482 L18.4624947,15.0620105 L19.0392125,24.1027305 L22.3954599,31.6531222 L13.4895567,29.7944524 L13.4895567,29.7944524 Z" id="Shape" fill="#F4F4F4"></path>
                    </g>
                </g>
            </g>
        </g>
    </g>
</svg>