<?xml version="1.0" encoding="UTF-8"?>
<svg width="160px" height="27px" viewBox="0 0 160 27" version="1.1" xmlns="http://www.w3.org/2000/svg" xmlns:xlink="http://www.w3.org/1999/xlink">
    <!-- Generator: Sketch 51.3 (57544) - http://www.bohemiancoding.com/sketch -->
    <title>seu-logo</title>
    <desc>Created with Sketch.</desc>
    <defs></defs>
    <g id="Design" stroke="none" stroke-width="1" fill="none" fill-rule="evenodd">
        <g id="New-Homepage-Desin" transform="translate(-42.000000, -13.000000)">
            <g id="Header" transform="translate(0.000000, -4.000000)">
                <g id="seu-logo" transform="translate(42.000000, 17.000000)">
                    <path d="M29.0040943,19.9507039 C29.0040943,18.5431341 28.8875008,18.5012938 28.2805173,18.4105083 L28.0605002,18.3726152 C27.9698594,18.2763037 27.9830295,18.0524977 28.0868403,18.0003947 C28.6024083,18.0248673 29.1842139,18.039472 29.752462,18.039472 C30.3338802,18.039472 30.9149111,18.0256568 31.4839339,18.0003947 C31.5892942,18.0528924 31.6005274,18.2763037 31.5094993,18.3726152 L31.2263436,18.4105083 C30.6174233,18.5012938 30.5019918,18.5431341 30.5019918,19.9507039 L30.5019918,22.9857024 C30.5019918,24.8168063 31.0473861,26.3518705 32.841222,26.3518705 C34.5347332,26.3518705 35.2311955,25.041007 35.2311955,23.0243849 L35.2311955,21.3665629 C35.2311955,20.3726591 35.2188001,19.13995 34.984451,18.7547037 C34.8694069,18.5533968 34.6641094,18.4634007 34.3391195,18.4101136 L34.0815291,18.3722205 C33.9629988,18.275909 33.9781056,18.0382878 34.1063198,18 C34.5459664,18.0244726 35.0375185,18.0390772 35.5406912,18.0390772 C36.082212,18.0390772 36.4335419,18.025262 36.9103746,18 C37.0122486,18.0663129 37.0366519,18.275909 36.9343905,18.3722205 L36.6512348,18.4393228 C36.4064272,18.4918205 36.1744022,18.5427394 36.082212,18.7547037 C35.9024798,19.1533705 35.9024798,20.3173984 35.9024798,21.3665629 L35.9024798,22.9438621 C35.9024798,24.1497303 35.7235223,25.2652077 35.0503012,26.009254 C34.3774675,26.7525109 33.4102448,27 32.5177815,27 C31.3026523,27 30.4516358,26.7386957 29.8570476,26.1529319 C29.2775662,25.5845358 29.0040943,24.6557607 29.0040943,23.3156879 L29.0040943,19.9507039 L29.0040943,19.9507039 Z" id="Shape" fill="#002566"></path>
                    <path d="M51.8531858,24.4946645 C51.8531858,24.892321 51.8531858,26.5107909 51.8936183,26.8147197 C51.7848548,26.9586447 51.5944176,27.0092342 51.4343048,26.9986457 C51.218395,26.7213842 50.8274125,26.2747069 49.8566275,25.1962498 L46.7024859,21.6765582 C45.8242913,20.7153588 45.3944936,20.2129939 45.1652411,20.0137735 C45.122787,20.0137735 45.122787,20.1616201 45.122787,20.8557543 L45.122787,23.4283646 C45.122787,24.4134861 45.137747,25.6268483 45.3661908,26.0233283 C45.4911273,26.2186271 45.7179538,26.298629 46.0523308,26.350395 L46.3511272,26.3927489 C46.4724248,26.4833393 46.4582734,26.732757 46.3252504,26.7719736 C45.8246957,26.7476593 45.2994771,26.732757 44.7880056,26.732757 C44.2219502,26.732757 43.8576531,26.746875 43.3845925,26.7719736 C43.2754247,26.7060897 43.2515695,26.4845158 43.3570984,26.3927489 L43.6538732,26.326865 C43.912237,26.284511 44.1540236,26.2327451 44.247827,26.0233283 C44.4249215,25.6115538 44.4249215,24.4707423 44.4249215,23.4283646 L44.4249215,20.3027999 C44.4249215,19.2761088 44.4390729,19.0670842 43.979355,18.6835457 C43.831372,18.563935 43.4521149,18.4611875 43.263295,18.4215787 L43.0599193,18.3807934 C42.9661159,18.3031445 42.9810759,18.0384323 43.1145032,18 C43.6279964,18.0521581 44.3695289,18.0384323 44.7055233,18.0384323 C44.9893596,18.0384323 45.3132242,18.0250986 45.6346628,18 C45.8655325,18.563935 47.3344463,20.2259354 47.8066982,20.7228099 L49.1579534,22.1491184 C49.7223915,22.7542309 50.9762042,24.1519112 51.1108445,24.2287758 C51.1508727,24.1895592 51.1508727,24.1244596 51.1508727,23.915435 L51.1508727,21.345962 C51.1508727,20.3584875 51.1391473,19.1470861 50.8973608,18.7509983 C50.7728286,18.5509935 50.5565145,18.4760898 50.2217332,18.422363 L49.9136373,18.3815777 C49.7911268,18.2898108 49.8036609,18.0392166 49.9399185,18.0007843 C50.4635197,18.0250986 50.9604355,18.0392166 51.4888887,18.0392166 C52.0674782,18.0392166 52.4192412,18.0254908 52.9052402,18.0007843 C53.0111734,18.0666683 53.0402848,18.2890265 52.9303083,18.3815777 L52.6218081,18.4466773 C52.3638486,18.4894234 52.1370221,18.5400129 52.0420057,18.7502139 C51.8535901,19.1568903 51.8535901,20.3031921 51.8535901,21.3451777 L51.8531858,24.4946645 L51.8531858,24.4946645 Z" id="Shape" fill="#002566"></path>
                    <path d="M62.8243789,25.0145757 C62.8243789,26.4475096 62.9492724,26.4897612 63.6214805,26.5674238 L63.9322223,26.6108826 C64.0332453,26.7038362 64.0183263,26.9472861 63.9040893,27 C63.2791957,26.9750514 62.6372519,26.9597604 62.0136371,26.9597604 C61.3887435,26.9597604 60.7216504,26.9742466 60.0946256,27 C59.9799623,26.9472861 59.9680271,26.7050434 60.0669188,26.6108826 L60.3797919,26.5674238 C61.0477375,26.4897612 61.1751885,26.4467048 61.1751885,25.0145757 L61.1751885,19.9886435 C61.1751885,18.5536976 61.0477375,18.5110435 60.3797919,18.4325762 L60.0669188,18.390727 C59.9684533,18.2965662 59.9803886,18.0535187 60.0946256,18 C60.7216504,18.0249486 61.3606105,18.0394349 62.0136371,18.0394349 C62.6372519,18.0394349 63.2791957,18.025351 63.9040893,18 C64.0187526,18.0535187 64.0336716,18.2957614 63.9322223,18.390727 L63.6214805,18.4325762 C62.9492724,18.5110435 62.8243789,18.5536976 62.8243789,19.9886435 L62.8243789,25.0145757 L62.8243789,25.0145757 Z" id="Shape" fill="#002566"></path>
                    <path d="M76.5256081,23.5014474 C75.9646843,24.7089474 75.3099241,26.2598684 75.0703062,26.9392105 C75.0422391,26.9755263 74.9282949,27 74.8327828,27 C74.7347573,27 74.6375696,26.9755263 74.5663545,26.9392105 C74.4004652,26.4043421 74.1759281,25.7565789 73.9258373,25.1992105 L71.4810642,19.6172368 C71.0885432,18.7282895 70.9637073,18.5423684 70.4019457,18.4393421 L70.0693292,18.3722368 C69.9708848,18.2759211 69.9708848,18.0382895 70.1108015,18 C70.6566445,18.0244737 71.2556893,18.0390789 71.8023701,18.0390789 C72.4307388,18.0390789 72.9070422,18.0252632 73.6460038,18 C73.7720965,18.0777632 73.7859206,18.2905263 73.6581523,18.3832895 L73.3117117,18.4634211 C73.0029732,18.5289474 72.8915425,18.5968421 72.8915425,18.7018421 C72.8915425,18.8226316 73.0029732,19.1111842 73.5764644,20.4663158 L74.5789219,22.8256579 C74.8327828,23.4217105 75.2085473,24.2032895 75.3493019,24.5131579 C76.1041822,22.8394737 76.9441017,21.0090789 77.6834821,19.2082895 C77.9055058,18.6777632 77.8652902,18.5684211 77.4434453,18.4788158 L77.0421272,18.3840789 C76.9436827,18.2771053 76.9541555,18.0671053 77.0697754,18.0007895 C77.6386585,18.0252632 78.1183133,18.0394737 78.564874,18.0394737 C79.0629609,18.0394737 79.5271159,18.0256579 79.9196369,18.0007895 C80.0310676,18.0671053 80.0138922,18.2763158 79.9451905,18.3840789 L79.5970743,18.4496053 C79.2740928,18.5167105 78.9682867,18.6098684 78.73202,18.9939474 C78.339918,19.6322368 77.9369242,20.5180263 77.3047853,21.8565789 L76.5256081,23.5014474 L76.5256081,23.5014474 Z" id="Shape" fill="#002566"></path>
                    <path d="M86.3953581,19.9886857 C86.3953581,18.5534189 86.2689145,18.5107553 85.5972633,18.4181834 L85.3662358,18.3908144 C85.2672241,18.297035 85.2847976,18.0535307 85.3958108,18 C85.9380181,18.0249542 86.612241,18.0398462 87.2388869,18.0398462 L89.9696399,18.0398462 C90.8873204,18.0398462 91.7149902,18.0257591 91.9010123,18 C91.9580191,18.2286123 92.0433149,19.2992263 92.1268963,19.8763919 C92.0707467,19.9886857 91.7869987,20.0140423 91.6738424,19.9307276 C91.4411005,19.1499039 91.2250748,18.8118152 90.7707351,18.7011314 C90.4406959,18.6085595 90.0155025,18.5783731 89.6288852,18.5783731 L88.6713428,18.5783731 C88.053698,18.5783731 88.053698,18.6081571 88.053698,19.3761012 L88.053698,21.6606145 C88.053698,22.015205 88.069557,22.0284871 88.398739,22.0284871 L89.0845348,22.0284871 C90.3292541,22.0284871 90.5739975,22.015205 90.6691516,21.4328071 L90.772021,20.97518 C90.887749,20.8769733 91.1539235,20.8769733 91.2267893,20.9860471 C91.2152165,21.3531148 91.1856416,21.8397209 91.1856416,22.3408166 C91.1856416,22.8515719 91.2139306,23.325701 91.2267893,23.7587764 C91.1539235,23.8501409 90.887749,23.8501409 90.772021,23.7684361 L90.6691516,23.2299092 C90.5727116,22.6615983 90.3292541,22.6354367 89.0845348,22.6354367 L88.398739,22.6354367 C88.069557,22.6354367 88.053698,22.6611958 88.053698,23.0000894 L88.053698,24.7162918 C88.053698,25.4065561 88.0845588,25.8923572 88.2971555,26.1257994 C88.4703189,26.3113456 88.7116333,26.4204195 89.9134904,26.4204195 C91.7244199,26.4465811 92.0433149,26.0557667 92.5448031,24.9589911 C92.6738184,24.8664192 92.9138469,24.9042529 93,25.0406959 C92.9138469,25.6102142 92.5996667,26.6349448 92.3990715,27 C91.7728542,26.9750458 90.5397077,26.9597514 88.8672232,26.9597514 L87.2388869,26.9597514 C86.612241,26.9597514 85.73828,26.9742409 85.0983469,27 C84.9821902,26.9472743 84.9646167,26.7049774 85.0687719,26.6107956 L85.5972633,26.5560574 C86.2689145,26.4884397 86.3953581,26.4465811 86.3953581,25.0129243 L86.3953581,19.9886857 L86.3953581,19.9886857 L86.3953581,19.9886857 Z" id="Shape" fill="#002566"></path>
                    <path d="M100.160465,24.961262 C100.160465,26.3833866 100.034386,26.4253195 99.3802715,26.5023962 L99.0769321,26.5455272 C98.9500205,26.6377796 98.9949597,26.879393 99.1043949,26.9317093 C99.7456103,26.9069489 100.365604,26.8917732 100.980189,26.8917732 C101.590613,26.8917732 102.2156,26.9061502 102.82436,26.9317093 C102.933379,26.879393 102.949607,26.6389776 102.850158,26.5455272 L102.544738,26.5023962 C101.893952,26.4253195 101.769537,26.3825879 101.769537,24.961262 L101.769537,23.2444089 C101.769537,22.9628594 101.77994,22.9480831 102.19854,22.9480831 C102.659167,22.9480831 102.809796,23.0019968 103.059874,23.4057508 C103.392341,23.9273163 103.780565,24.6653355 104.155474,25.2308307 C105.003077,26.4788339 105.723352,27 107.058628,27 C107.54214,27 107.808863,26.9600639 107.972807,26.922524 C108.012753,26.8554313 108.012753,26.7056709 107.945345,26.6517572 C107.779735,26.639377 107.371538,26.5559105 106.988723,26.2376198 C106.332112,25.7128594 105.638051,24.5746805 104.529551,22.7611821 C104.475042,22.6833067 104.450076,22.5726837 104.529551,22.534345 C105.209881,22.264377 106.193133,21.6473642 106.193133,20.4133387 C106.193133,19.4476837 105.684239,18.8166933 104.973118,18.4540735 C104.362694,18.1305911 103.42022,18 102.339183,18 C101.198227,18 100.01899,18.0391374 99.1460052,18.1202077 C99.0344895,18.1896965 99.0344895,18.4009585 99.1314416,18.4972045 L99.4905389,18.5351438 C100.144653,18.6038339 100.160049,18.7631789 100.160049,20.0499201 L100.160049,24.961262 L100.160465,24.961262 L100.160465,24.961262 Z M101.769121,19.1916933 C101.769121,18.5738818 101.779524,18.5347444 102.50604,18.5347444 C103.709828,18.5347444 104.41762,19.4608626 104.41762,20.5223642 C104.41762,21.7959265 103.793465,22.438099 102.436135,22.438099 C101.768705,22.438099 101.768705,22.4133387 101.768705,21.9840256 L101.768705,19.1916933 L101.769121,19.1916933 Z" id="Shape" fill="#002566"></path>
                    <path d="M113.420992,26.4579244 C113.166594,26.1818531 112.985303,25.2843312 113.000939,24.4805109 C113.07954,24.348864 113.324641,24.3360865 113.436627,24.4290137 C113.691025,25.0922817 114.450839,26.480769 115.831857,26.480769 C116.903118,26.480769 117.507419,25.8833245 117.507419,25.0922817 C117.507419,24.348864 117.129202,23.7506451 116.071464,23.2046978 L115.465473,22.8906813 C114.407312,22.348606 113.477196,21.5529168 113.477196,20.3835828 C113.477196,19.092669 114.522256,18 116.578993,18 C117.309648,18 117.847602,18.1572019 118.507685,18.2752968 C118.66531,18.5602736 118.805609,19.4210118 118.805609,20.0289106 C118.734615,20.1501032 118.481907,20.1590087 118.355131,20.0691791 C118.142146,19.3915849 117.649408,18.5219411 116.452639,18.5219411 C115.324328,18.5219411 114.858214,19.1972121 114.858214,19.8883582 C114.858214,20.4335312 115.269392,21.0181981 116.198663,21.4743158 L117.072576,21.9052657 C117.988747,22.348606 119,23.1524263 119,24.4657974 C119,25.9479863 117.778298,26.9999997 115.733816,26.9999997 C114.438161,27.0003869 113.705816,26.6124158 113.420992,26.4579244 L113.420992,26.4579244 Z" id="Shape" fill="#002566"></path>
                    <path d="M128.825482,25.0145757 C128.825482,26.4475096 128.952947,26.4897612 129.616278,26.5674238 L129.933449,26.6108826 C130.033204,26.7038362 130.017431,26.9472861 129.905313,27 C129.27907,26.9750514 128.63876,26.9597604 128.014223,26.9597604 C127.389686,26.9597604 126.720387,26.9742466 126.092439,27 C125.9816,26.9472861 125.966679,26.7050434 126.06814,26.6108826 L126.379343,26.5674238 C127.047789,26.4897612 127.174402,26.4467048 127.174402,25.0145757 L127.174402,19.9886435 C127.174402,18.5536976 127.047789,18.5110435 126.379343,18.4325762 L126.06814,18.390727 C125.966679,18.2965662 125.9816,18.0535187 126.092439,18 C126.720387,18.0249486 127.36155,18.0394349 128.014223,18.0394349 C128.63876,18.0394349 129.27907,18.025351 129.905313,18 C130.017857,18.0535187 130.03363,18.2957614 129.933449,18.390727 L129.616278,18.4325762 C128.952521,18.5110435 128.825482,18.5536976 128.825482,19.9886435 L128.825482,25.0145757 L128.825482,25.0145757 Z" id="Shape" fill="#002566"></path>
                    <path d="M139.717812,19.4798281 C139.717812,18.9346079 139.703414,18.9059936 139.346771,18.9059936 L138.581242,18.9059936 C137.317565,18.9059936 136.94529,19.0502256 136.436857,20.1031579 C136.342657,20.1801074 136.054299,20.1433727 136,20.0119012 C136.232826,19.3123953 136.436857,18.5050054 136.535171,18.0510419 C136.560263,18.0108271 136.617853,18 136.684492,18 C136.743316,18 136.796791,18.0104404 136.821884,18.0510419 C136.890991,18.3750806 137.085561,18.3886144 138.0181,18.3886144 L143.613328,18.3886144 C144.290004,18.3886144 144.490745,18.350333 144.656109,18.0510419 C144.714932,18.0255209 144.767585,18 144.823118,18 C144.902509,18 144.970794,18.0247476 145,18.0668958 C144.864253,18.5935553 144.752365,19.7149302 144.794323,20.1294522 C144.723571,20.2330827 144.490745,20.2616971 144.366927,20.1665736 C144.190045,19.1565628 143.929247,18.9067669 142.46195,18.9067669 L141.679556,18.9067669 C141.323735,18.9067669 141.309338,18.9349946 141.309338,19.4802148 L141.309338,25.0913426 C141.309338,26.4683136 141.432332,26.5089151 142.080625,26.5738776 L142.57137,26.6260795 C142.667626,26.7154028 142.654875,26.9493448 142.545866,27 C141.748663,26.9760258 141.131222,26.9613319 140.530234,26.9613319 C139.925134,26.9613319 139.278486,26.9752524 138.399424,27 C138.289181,26.9493448 138.280543,26.6864017 138.375154,26.6260795 L138.951872,26.5611171 C139.593994,26.5089151 139.718223,26.4683136 139.718223,25.0913426 L139.718223,19.4798281 L139.717812,19.4798281 L139.717812,19.4798281 Z" id="Shape" fill="#002566"></path>
                    <path d="M153.563456,24.2167479 C153.563456,23.4574597 153.508025,23.2586847 153.119175,22.5396343 L151.451246,19.3354943 C151.147001,18.7548621 151.035306,18.5927035 150.409312,18.4723924 L150.047969,18.3907095 C149.965031,18.296553 149.993371,18.0394331 150.104233,18 C150.701887,18.0249475 151.283703,18.0394331 151.856767,18.0394331 C152.466507,18.0394331 153.313808,18.0253498 153.63389,18 C153.744752,18.0535163 153.773093,18.2957482 153.663065,18.3907095 L153.245457,18.4575044 C153.023317,18.4872804 152.954132,18.5259087 152.954132,18.6337461 C152.954132,18.7427907 153.009563,18.8900613 153.203363,19.3354943 C153.760173,20.497161 154.261552,21.5964591 154.816694,22.5842983 C155.387258,21.5525998 155.904057,20.6102294 156.442946,19.5922117 C156.677173,19.1318907 156.818876,18.837752 156.818876,18.6900791 C156.818876,18.5532704 156.692593,18.5110207 156.497543,18.4872804 L156.08327,18.3907095 C155.981577,18.296553 155.981577,18.0675996 156.12078,18 C156.733854,18.0249475 157.164381,18.0394331 157.579488,18.0394331 C158.009182,18.0394331 158.454713,18.0253498 158.900661,18 C159.027777,18.0675996 159.027777,18.2808602 158.929835,18.3907095 L158.524314,18.4723924 C157.899153,18.5786203 157.734111,18.837752 157.011842,20.0255734 C156.537137,20.7933116 156.120363,21.5397237 155.690669,22.2965977 C155.276396,23.00076 155.175537,23.2844369 155.175537,24.2002504 L155.175537,25.0134573 C155.175537,26.4467296 155.300986,26.4885769 155.981577,26.5565789 L156.51213,26.6109 C156.607571,26.7038494 156.595068,26.9472884 156.484623,27 C155.623568,26.9750525 154.996741,26.9597621 154.383666,26.9597621 C153.743919,26.9597621 153.119592,26.9742478 152.365648,27 C152.256453,26.9472884 152.2427,26.7050566 152.342725,26.6109 L152.78784,26.5565789 C153.43884,26.4885769 153.562622,26.4467296 153.562622,25.0134573 L153.562622,24.2167479 L153.563456,24.2167479 L153.563456,24.2167479 Z" id="Shape" fill="#002566"></path>
                    <path d="M48,13.036494 C48,12.4415119 48.4305788,12 49.0020074,12 C49.609903,12 50,12.4727924 50,13.036494 C50,13.5953079 49.609903,14 49.0020074,14 C48.484443,14 48,13.6327794 48,13.036494 L48,13.036494 Z" id="Shape" fill="#002566"></path>
                    <path d="M150,2.06769329 C150,3.56071543 148.715823,4.59416105 147.216948,5 C147.028977,4.9141803 146.9341,4.70083414 147.051694,4.55004812 C147.929638,4.18230671 148.857915,3.57996471 148.857915,2.69690407 C148.857915,1.87520051 148.121173,1.51066731 147.667724,1.48540263 C147.337215,1.46414822 147.028977,1.2937119 147.028977,0.882258582 C147.028977,0.561036253 147.240556,0 148.169725,0 C149.139428,-3.56183197e-16 150,0.949631056 150,2.06769329 L150,2.06769329 Z" id="Shape" fill="#002566"></path>
                    <path d="M32.15902,14 C30.2497872,14 29.0446505,13.4766601 28.6134235,13.2528016 C28.3401287,12.8095993 28.0446978,11.3731424 28,10.4201446 C28.11366,10.2771761 28.4567685,10.2388004 28.5470154,10.3599473 C28.8862927,11.391954 29.8177088,13.3754535 32.4531738,13.3754535 C34.364535,13.3754535 35.2929713,12.2614281 35.2929713,11.0484534 C35.2929713,10.1582865 35.0894901,9.16503185 33.4314161,8.21203408 L31.2735787,6.96030744 C30.1331473,6.29475155 28.8173304,5.13896428 28.8173304,3.48241111 C28.8173304,1.55986133 30.4992432,0 33.4539779,0 C34.1555198,0 34.9758301,0.103087797 35.5654148,0.265620381 C35.8621228,0.327698799 36.1826696,0.386391121 36.3618863,0.386391121 C36.5666446,0.871731477 36.7735314,2.00381608 36.7735314,2.85447851 C36.6815817,2.97449679 36.3159115,3.03619897 36.2026771,2.9161807 C35.9085233,1.94662869 35.2925456,0.627180135 33.1125721,0.627180135 C30.8870495,0.627180135 30.4085706,1.94662869 30.4085706,2.87441885 C30.4085706,4.05014646 31.5008987,4.87673 32.3412165,5.36319905 L34.1555198,6.37488915 C35.590105,7.161592 37,8.33581468 37,10.2587407 C36.9995743,12.4849104 35.1116261,14 32.15902,14 L32.15902,14 Z" id="Shape" fill="#002566"></path>
                    <path d="M44.858304,11.7031624 C44.858304,13.9677338 44.9007196,14.2675921 46.1646226,14.3962746 L46.861625,14.4628207 C46.9929502,14.5490099 46.9484954,14.9334539 46.8179858,15 C45.5748827,14.9583085 44.835057,14.9334539 43.9659452,14.9334539 C43.0960177,14.9334539 42.335392,14.9583085 40.9397559,15 C40.8104699,14.9334539 40.7668308,14.5694548 40.9397559,14.4628207 L41.7215894,14.3962746 C42.9651004,14.2896405 43.0727707,13.9681347 43.0727707,11.7031624 L43.0727707,2.06640656 C43.0727707,1.40134654 43.0727707,1.37769462 42.4202231,1.37769462 L41.2215749,1.37769462 C40.2863926,1.37769462 39.0905992,1.42139054 38.5469456,1.91727918 C38.0232761,2.38831325 37.8050805,2.86576141 37.5669007,3.40374245 C37.3919364,3.53162319 37.0868704,3.42498909 37,3.25341243 C37.3474816,2.28328268 37.674571,0.905457905 37.8283276,0.0419622513 C37.8927666,-0.00373807575 38.176217,-0.0233811988 38.2418796,0.0419622513 C38.3744283,0.731876838 39.0914149,0.711431955 40.0918519,0.711431955 L48.9069537,0.711431955 C50.0860256,0.711431955 50.2793428,0.665330748 50.6072479,0.104499541 C50.7141026,0.0624071345 50.9539138,0.0836537777 51,0.169041231 C50.7573339,1.05578793 50.6072479,2.80041796 50.6696478,3.4450331 C50.5823696,3.62262296 50.2132724,3.62262296 50.1035628,3.48993166 C50.0387159,2.95275238 49.8869986,2.1521949 49.5611326,1.9168783 C49.0598945,1.54846952 48.231567,1.37729374 47.0325109,1.37729374 L45.4884202,1.37729374 C44.8346491,1.37729374 44.858304,1.40094566 44.858304,2.11050337 L44.858304,11.7031624 L44.858304,11.7031624 L44.858304,11.7031624 Z" id="Shape" fill="#002566"></path>
                    <path d="M60.1752191,4.21437748 C60.1752191,2.03066525 60.1335309,1.71434955 58.8308796,1.57007205 L58.477975,1.52471653 C58.3446555,1.44026141 58.389233,1.06451433 58.5229652,1 C59.4694099,1.04066358 60.21732,1.06451433 61.1216637,1.06451433 L65.2644746,1.06451433 C66.6740291,1.06451433 67.9754421,1.06451433 68.2387791,1 C68.3687966,1.35658828 68.5012906,2.86935151 68.5887944,3.79444786 C68.5012906,3.92308552 68.1504498,3.9629671 68.0390062,3.8386304 C67.7083904,2.8509747 67.507792,2.1119924 66.3677657,1.84181422 C65.9034176,1.73702731 65.1980212,1.71434955 64.2280495,1.71434955 L62.6401853,1.71434955 C61.9810173,1.71434955 61.9810173,1.75696811 61.9810173,2.5534268 L61.9810173,6.76054293 C61.9810173,7.34899179 62.048709,7.34899179 62.707877,7.34899179 L63.984112,7.34899179 C64.909919,7.34899179 65.5926139,7.30715523 65.8596657,7.22074513 C66.1213517,7.137463 66.2769599,7.01390828 66.3879907,6.4848908 L66.5634111,5.62430878 C66.6736164,5.50036307 67.0475714,5.50036307 67.1363135,5.64424957 C67.1363135,6.1494163 67.0475714,6.97050774 67.0475714,7.77048539 C67.0475714,8.52549852 67.1363135,9.32273921 67.1363135,9.78919734 C67.0475714,9.93112886 66.6736164,9.93112886 66.5634111,9.80835614 L66.3669402,8.98843769 C66.2765471,8.60995364 66.1209389,8.29481093 65.6805305,8.19041501 C65.3742671,8.10635089 64.8442911,8.08250014 63.9845247,8.08250014 L62.707877,8.08250014 C62.0482962,8.08250014 61.9810173,8.10674189 61.9810173,8.64983522 L61.9810173,11.6182763 C61.9810173,12.7310507 62.048709,13.4426632 62.3983115,13.8031615 C62.6649505,14.0537899 63.1255839,14.2860414 65.0663527,14.2860414 C66.7615329,14.2860414 67.4025397,14.2019773 67.8862873,13.9705077 C68.2804673,13.7589789 68.8740074,13.0219516 69.4497991,11.928336 C69.6045818,11.8247221 69.9100197,11.8900184 70,12.0769145 C69.8460428,12.8135508 69.2950163,14.4303189 69.0085651,15 C67.0261082,14.9589454 65.0663527,14.9350947 63.1065972,14.9350947 L61.121251,14.9350947 C60.1752191,14.9350947 59.4264835,14.9589454 58.1246577,15 C57.9925765,14.9350947 57.946348,14.6000112 58.0809058,14.4760655 L58.8081782,14.4111601 C60.0654265,14.3071552 60.1752191,13.9935765 60.1752191,11.7844495 L60.1752191,4.21437748 L60.1752191,4.21437748 L60.1752191,4.21437748 Z" id="Shape" fill="#002566"></path>
                    <path d="M71.8759756,11.7049235 C71.8759756,13.8973719 71.83297,14.145764 70.5772863,14.3122644 L70.0798814,14.3766911 C69.9472131,14.4993347 69.992653,14.8323353 70.1220756,14.896762 C71.1408226,14.8563983 71.9189813,14.8323353 72.8277798,14.8323353 C73.5860586,14.8323353 74.9740049,15 76.3582998,15 C78.0265942,15 79.8024027,14.731426 81.2077947,13.9978931 C83.6769679,12.7066423 85,10.4295853 85,7.78498558 C85,5.02666888 83.5260424,2.65103127 80.6036872,1.6252495 C79.1950494,1.12458417 77.6602348,1 75.8385806,1 C73.9978579,1 72.2435522,1.06403859 70.4012066,1.16727656 C70.1849613,1.25188512 70.2088984,1.5852739 70.3817324,1.68773564 L70.8580402,1.75177423 C71.766433,1.87480594 71.8763814,2.31104458 71.8763814,3.77422932 L71.8763814,11.7049235 L71.8759756,11.7049235 Z M73.6525956,3.52389665 C73.6525956,2.58466401 73.6947898,2.05993568 73.8692467,1.93845642 C74.0420807,1.81387226 74.7346338,1.64271457 76.0126318,1.64271457 C81.6881597,1.64271457 82.8355178,5.52694611 82.8355178,7.82185629 C82.8355178,11.7045354 80.9505723,14.355733 76.7465677,14.355733 C75.3845871,14.355733 74.5605827,14.1449878 74.0858978,13.4983921 C73.7154812,12.9965624 73.6525956,12.3290086 73.6525956,11.2256043 L73.6525956,3.52389665 L73.6525956,3.52389665 Z" id="Shape" fill="#002566"></path>
                    <path d="M84.0839498,1.4943297 C83.953353,1.36854216 83.9747758,1.0828357 84.1506901,1 C84.7431131,1.03988385 85.7310342,1.06327727 86.4169761,1.06327727 C87.0337058,1.06327727 88.1522236,1.03950036 88.918913,1 C89.11625,1.06327727 89.0968871,1.34975073 88.9646425,1.4943297 L88.4583226,1.53344656 C87.9964963,1.57831589 87.7307711,1.70141894 87.7307711,1.88243029 C87.7307711,2.13515586 88.1925974,3.18479154 88.8773033,4.64860571 C90.1074669,7.22763381 91.4072547,9.80397743 92.6823238,12.3415877 C93.2055347,11.3084424 93.7790069,10.1541117 94.3730778,8.99939736 C94.5469322,8.60707829 94.7253183,8.25617707 94.7253183,8.15570043 C94.7253183,8.05330631 94.657754,7.86539199 94.5465202,7.61880239 C93.7790069,5.9682244 92.9645281,4.31918041 92.1343943,2.66821892 C91.8019288,2.03046075 91.4690513,1.59710732 90.7229607,1.53421355 L90.196042,1.4947132 C90.0440225,1.33134279 90.0650333,1.0832192 90.2401236,1.0003835 C90.8791001,1.04026735 91.7125297,1.06366077 92.5945727,1.06366077 C93.6929036,1.06366077 94.5082063,1.03988385 95.0116423,1.0003835 C95.1636619,1.06366077 95.1887925,1.33134279 95.0548999,1.4947132 L94.4851356,1.53383006 C93.6257514,1.59672383 93.5824938,1.74322029 94.0191895,2.66783542 C94.460829,3.67912124 95.0989815,4.9791815 95.7128274,6.25891634 C96.1322201,5.45203528 96.528542,4.67238262 97.0113792,3.55793568 C97.8031992,1.80573056 97.6944372,1.57869939 96.9903684,1.53383006 L96.3295571,1.4947132 C96.1783615,1.28762395 96.2216191,1.06366077 96.3736386,1.0003835 C96.9660617,1.04026735 97.626461,1.06366077 98.4421757,1.06366077 C99.1664314,1.06366077 100.047238,1.03988385 100.551086,1.0003835 C100.706402,1.06366077 100.726589,1.33134279 100.59764,1.4947132 L99.9594873,1.53383006 C99.0350107,1.59672383 98.6382768,2.52440695 98.1537917,3.37308936 C97.6944372,4.13510108 96.7699606,5.92910754 96.439143,6.65085191 C96.3279092,6.85640717 96.241394,7.05812743 96.241394,7.14633211 C96.241394,7.22801731 96.2887714,7.39407221 96.4000052,7.64142881 C97.1436238,9.22681203 97.9119611,10.7749959 98.6386887,12.3419712 C99.3233947,10.895031 99.9607232,9.4546102 100.618239,7.99041253 C101.038455,7.00098614 102.223301,4.25513614 102.374085,3.88659398 C102.665353,3.14490769 103.0419,2.25672492 103.0419,2.01128582 C103.0419,1.72366186 102.773291,1.55952446 102.312289,1.53383006 L101.676608,1.4947132 C101.501106,1.30718238 101.520469,1.0832192 101.695147,1.0003835 C102.530224,1.04026735 103.125943,1.06366077 103.806529,1.06366077 C104.639959,1.06366077 105.283879,1.03988385 105.853644,1.0003835 C106.029146,1.06366077 106.050981,1.33134279 105.896489,1.4947132 L105.479568,1.53383006 C104.374646,1.63699118 104.181017,2.25672492 102.863514,5.12414398 L101.256803,8.60669479 C100.313788,10.7109516 99.4115578,12.7335233 98.5089159,14.9405577 C98.4438236,14.9804416 98.3536006,15 98.2448386,15 C98.1352527,15 98.0269027,14.9804416 97.93256,14.9405577 C97.2350828,13.1047499 95.9579537,10.5264888 95.2732478,9.08108256 C94.4855476,10.5886156 93.164337,13.227853 92.5261845,14.9405577 C92.4602682,14.9804416 92.3716931,15 92.2637551,15 C92.1525213,15 92.0458192,14.9804416 91.9354093,14.9405577 C91.5572144,14.0711664 90.7019499,12.2150331 90.4160378,11.6183093 C89.0070761,8.75165726 87.6438439,5.8857722 86.2126354,3.01873665 C85.7965386,2.17388922 85.5332852,1.61819975 84.6129284,1.53344656 L84.0839498,1.4943297 L84.0839498,1.4943297 Z" id="Shape" fill="#002566"></path>
                    <path d="M112.986496,11.9580458 C113.152953,12.4522401 113.258559,12.8256655 113.258559,13.0534012 C113.258559,13.2569832 112.968045,13.3819695 112.529526,13.4218425 L111.916699,13.4854858 C111.771049,13.5874685 111.794604,13.9160368 111.961061,13.9992332 C112.567607,13.9804469 113.363379,13.9355899 114.370363,13.9355899 C115.313356,13.9355899 116.046707,13.9593603 116.906079,13.9992332 C117.008151,13.9160368 117.052514,13.5874685 116.906079,13.4854858 L116.34311,13.4218425 C115.438983,13.3198598 115.165351,13.0123781 114.558805,11.2353489 L111.689391,2.94829664 C111.374929,2.04195421 111.038483,1.09612225 110.765243,0.188629642 C110.726769,0.0429400811 110.578764,0 110.454707,0 C110.21994,0.270675868 109.865042,0.639117099 109.363709,0.785190054 C109.426523,1.11567532 109.30011,1.50635338 109.00567,2.24937014 L106.869608,7.81624493 C105.989429,10.1246577 105.40055,11.4638515 105.02563,12.4142841 C104.73119,13.1546172 104.268723,13.3819695 103.76582,13.4222259 L103.075653,13.4858692 C102.950811,13.5882353 102.991247,13.9164202 103.118445,14 C103.683377,13.9808303 104.438713,13.9363567 105.13045,13.9363567 C106.114272,13.9597437 106.76675,13.9597437 107.309697,14 C107.496961,13.9164202 107.496961,13.5882353 107.350919,13.4858692 L106.659967,13.4222259 C106.159419,13.3823529 106.052636,13.2573666 106.052636,13.0131449 C106.052636,12.7827254 106.19593,12.2298718 106.511962,11.2986088 L107.247276,9.13511885 C107.39214,8.70341768 107.517768,8.64015774 108.043049,8.64015774 L111.206117,8.64015774 C111.835826,8.64015774 111.917091,8.70341768 112.065096,9.15467192 L112.986496,11.9580458 L112.986496,11.9580458 Z M109.238867,3.7331033 C109.465782,3.11813999 109.676601,2.61934494 109.738629,2.51582868 L109.782206,2.51582868 C109.904693,2.76465111 110.093527,3.32172198 110.259199,3.8162997 L111.396914,7.17597765 C111.584963,7.73304853 111.540208,7.81624493 110.932877,7.81624493 L108.35437,7.81624493 C107.770986,7.81624493 107.747824,7.79669186 107.91428,7.32166721 L109.238867,3.7331033 L109.238867,3.7331033 Z" id="Shape" fill="#002566"></path>
                    <path d="M119.936811,11.6569528 C119.936811,13.8394183 119.890569,14.1059966 118.62444,14.2524216 L118.080177,14.3165549 C117.948408,14.4622071 117.990558,14.7701245 118.123145,14.8342578 C119.148652,14.7940779 119.936811,14.7701245 120.851828,14.7701245 C121.728788,14.7701245 122.468658,14.7940779 123.452425,14.8342578 C123.581738,14.7701245 123.627571,14.4193228 123.494983,14.3165549 L123.037884,14.2524216 C121.7693,14.086293 121.728788,13.8398046 121.728788,11.6569528 L121.728788,9.03868974 C121.728788,8.60366476 121.76971,8.58396114 122.754294,8.58396114 C123.62798,8.58396114 123.977864,8.78872423 124.303194,9.24847532 C124.981682,10.183045 125.877875,11.6136821 126.445054,12.3821232 C127.995591,14.4819108 129.10908,15 130.964896,15 C131.381482,15 131.731366,14.9598201 131.928201,14.8956867 C132.037053,14.8149405 132.016183,14.6464939 131.905694,14.6036096 C131.313552,14.5657477 130.770925,14.3358722 130.398944,14.022546 C128.915519,12.8395563 127.75497,11.1798162 126.008007,8.50051053 C125.897517,8.33515468 125.790711,8.12382372 125.897517,7.9978751 C126.987681,7.58255374 128.627837,6.5042636 128.627837,4.52810663 C128.627837,3.07699313 127.863822,2.14319618 126.814171,1.62240252 C125.811172,1.10392693 124.522536,1 123.168016,1 C121.026974,1 119.520224,1.063747 118.297473,1.16651489 C118.123145,1.2507382 118.123145,1.58260894 118.273329,1.68460413 L118.974324,1.76728206 C119.870108,1.87120899 119.935992,2.22626045 119.935992,4.19662224 L119.935992,11.6565665 L119.936811,11.6565665 L119.936811,11.6569528 Z M121.728788,2.30507492 C121.728788,1.72864751 121.7959,1.6409471 123.149192,1.6409471 C125.569322,1.6409471 126.64189,3.20101002 126.64189,4.84027375 C126.64189,6.25468444 126.138958,6.9837183 125.550089,7.4164252 C124.916206,7.8746309 124.088353,7.95808152 123.298558,7.95808152 C122.185068,7.95808152 121.858101,7.91558352 121.7959,7.85454094 C121.728788,7.77186301 121.728788,7.5439192 121.728788,7.16723239 L121.728788,2.30507492 L121.728788,2.30507492 Z" id="Shape" fill="#002566"></path>
                    <path d="M133.872515,11.7049235 C133.872515,13.8973719 133.832754,14.145764 132.578633,14.3122644 L132.078771,14.3766911 C131.949748,14.4993347 131.990727,14.8323353 132.118532,14.896762 C133.140979,14.8563983 133.920392,14.8323353 134.828016,14.8323353 C135.584708,14.8323353 136.972314,15 138.35992,15 C140.026265,15 141.805403,14.731426 143.213702,13.9978931 C145.6765,12.7066423 147,10.4295853 147,7.78498558 C147,5.02666888 145.527596,2.65103127 142.605914,1.6252495 C141.195181,1.12458417 139.657048,1 137.844234,1 C135.996932,1 134.243355,1.06403859 132.404168,1.16727656 C132.185478,1.25188512 132.206982,1.5852739 132.386722,1.68773564 L132.859806,1.75177423 C133.768648,1.87480594 133.874138,2.31104458 133.874138,3.77422932 L133.874138,11.7053116 L133.872515,11.7053116 L133.872515,11.7049235 Z M135.650031,3.52389665 C135.650031,2.58466401 135.693444,2.05993568 135.866286,1.93845642 C136.039128,1.81387226 136.73496,1.64271457 138.008961,1.64271457 C143.68354,1.64271457 144.833387,5.52694611 144.833387,7.82185629 C144.833387,11.7045354 142.950381,14.355733 138.748206,14.355733 C137.383727,14.355733 136.559278,14.1449878 136.084165,13.4983921 C135.716571,12.9965624 135.650031,12.3290086 135.650031,11.2256043 L135.650031,3.52389665 L135.650031,3.52389665 L135.650031,3.52389665 Z" id="Shape" fill="#002566"></path>
                    <path d="M155.158136,14 C153.25,14 152.045175,13.4766601 151.615184,13.2528016 C151.341438,12.8095993 151.048959,11.3731424 151,10.4201446 C151.113245,10.2771761 151.454683,10.2388004 151.547067,10.3599473 C151.884674,11.391954 152.821712,13.3754535 155.457001,13.3754535 C157.36386,13.3754535 158.29579,12.2614281 158.29579,11.0484534 C158.29579,10.1582865 158.091864,9.16503185 156.433207,8.21203408 L154.272185,6.96030744 C153.139735,6.29475155 151.820814,5.13896428 151.820814,3.48241111 C151.820814,1.55986133 153.502886,0 156.45492,0 C157.162488,0 157.97649,0.103087797 158.570388,0.265620381 C158.86457,0.327698799 159.182592,0.386391121 159.360974,0.386391121 C159.564901,0.871731477 159.774361,2.00381608 159.774361,2.85447851 C159.678571,2.97449679 159.317975,3.03619897 159.200473,2.9161807 C158.907143,1.94662869 158.29579,0.627180135 156.116462,0.627180135 C153.889026,0.627180135 153.410927,1.94662869 153.410927,2.87441885 C153.410927,4.05014646 154.501656,4.87673 155.34333,5.36319905 L157.162488,6.37488915 C158.590397,7.161592 160,8.33581468 160,10.2587407 C160,12.4849104 158.112299,14 155.158136,14 L155.158136,14 Z" id="Shape" fill="#002566"></path>
                    <polygon id="Shape" points="3.19732375 11.56238 2.69322948 15.7209213 1 20 2.03654883 19.771977 5 11"></polygon>
                    <polygon id="Shape" points="3 20 7 19.1850285 6.88026158 7"></polygon>
                    <polygon id="Shape" points="7.58724428 3.95853941 7.58724428 6 8.31448055 5.78322635 8.31448055 3.7724929 9 3.56077028 8.99638989 2.80311481 8.31448055 3.0165211 8.31448055 2 7.58724428 2.21635273 7.58724428 3.2151952 7 3.41302747 7.00080225 4.15005788"></polygon>
                    <polygon id="Shape" points="11.5865385 9.24231201 9.65961538 9.86531987 8 6 8.53576923 18.7948373 14 20 11.9411538 15.104321"></polygon>
                    <path d="M5.98727108,22 C5.18143941,22.4240809 5,23.5646312 5,23.5646312 L5,27 L6.99999923,27 L6.99999923,23.5642392 C7.00046208,23.5646312 6.7926399,22.3743043 5.98727108,22 L5.98727108,22 Z" id="Shape" fill="#002566"></path>
                    <path d="M12.4955197,23 C12.0931305,23.3825007 12,24.4112704 12,24.4112704 L12,27 L12.9999995,27 L12.9999995,24.4112704 C13.000271,24.4112704 12.8979088,23.3339118 12.4955197,23 L12.4955197,23 Z" id="Shape" fill="#002566"></path>
                    <path d="M3.49538545,23 C3.09364821,23.3811582 3,24.3916959 3,24.3916959 L3,27 L4,27 L4,24.3916959 C4,24.3916959 3.89793702,23.332883 3.49538545,23 L3.49538545,23 Z" id="Shape" fill="#002566"></path>
                    <path d="M9.98888889,22 C9.18518519,22.4294382 9,23.5719801 9,23.5719801 L9,27 L11,27 L11,23.5719801 C11,23.5719801 10.7939815,22.3786148 9.98888889,22 L9.98888889,22 Z" id="Shape" fill="#002566"></path>
                    <path d="M0,1 L0,21.8812792 L0.462824521,21.3143508 L8.17914911,19.8333233 L15.0342531,21.1323882 L15.9888542,21.518523 L17.967378,25.1741398 L16.4064157,26.4283959 L16.4064157,27 L21,27 L21,1 L0,1 L0,1 Z M7.46187305,2.84495264 L7.46187305,1.92072293 L8.20076118,1.72005755 L8.20076118,2.66104184 L8.89397852,2.46349359 L8.8976485,3.16484834 L8.20076118,3.36083803 L8.20076118,5.22215562 L7.46187305,5.422821 L7.46187305,3.53305959 L6.86570613,3.71034648 L6.86489058,3.02808416 L7.46187305,2.84495264 L7.46187305,2.84495264 Z M1.48919396,20.5483155 L3.21734403,16.2053711 L3.73195596,11.9843844 L5.57224412,11.4135595 L2.54736985,20.3172581 L1.48919396,20.5483155 L1.48919396,20.5483155 Z M3.17942096,20.1762079 L7.47369852,6.72617192 L7.60622536,19.332634 L3.17942096,20.1762079 L3.17942096,20.1762079 Z M7.82846269,6.61005875 C7.54913688,6.61005875 7.3228218,6.3938077 7.3228218,6.12729289 C7.3228218,5.86077808 7.54954465,5.6460856 7.82846269,5.6460856 C8.10534185,5.6460856 8.3304336,5.86077808 8.3304336,6.12729289 C8.3304336,6.3938077 8.10493408,6.61005875 7.82846269,6.61005875 L7.82846269,6.61005875 Z M8.77490825,19.316269 L8.2068778,6.62486512 L9.96601876,10.4589378 L12.0097866,9.84096631 L12.3849395,15.6555869 L14.5681664,20.5116892 L8.77490825,19.316269 L8.77490825,19.316269 Z" id="Shape" fill="#002566"></path>
                </g>
            </g>
        </g>
    </g>
</svg>