<?xml version="1.0" encoding="UTF-8"?>
<svg width="30px" height="31px" viewBox="0 0 30 31" version="1.1" xmlns="http://www.w3.org/2000/svg" xmlns:xlink="http://www.w3.org/1999/xlink">
    <!-- Generator: Sketch 51.3 (57544) - http://www.bohemiancoding.com/sketch -->
    <title>zoom27</title>
    <desc>Created with Sketch.</desc>
    <defs></defs>
    <g id="Design" stroke="none" stroke-width="1" fill="none" fill-rule="evenodd">
        <g id="New-Homepage-Desin" transform="translate(-1005.000000, -744.000000)" fill="#000000">
            <g id="Content" transform="translate(-44.000000, 120.000000)">
                <g id="Banner-OPtion5">
                    <g id="search-mag" transform="translate(1049.000000, 624.000000)">
                        <g id="Group" fill="none">
                            <path d="M29.2875,26.9027574 L23.1231618,20.5329412 C24.6088235,18.3168971 25.3519853,15.8469265 25.3519853,13.1230294 C25.3519853,11.3526103 25.0193382,9.65946324 24.3542647,8.04381618 C23.6894118,6.42794118 22.7907353,5.03522059 21.6584559,3.86519853 C20.5261765,2.69517647 19.1786029,1.76654412 17.6150735,1.07952941 C16.0511029,0.392286765 14.4125735,0.0487794118 12.6992647,0.0487794118 C10.9859559,0.0487794118 9.34742647,0.392286765 7.78389706,1.07952941 C6.22014706,1.76654412 4.87235294,2.69517647 3.74007353,3.86519853 C2.60779412,5.03522059 1.70911765,6.42816912 1.04426471,8.04381618 C0.379191176,9.65969118 0.0467647059,11.3526103 0.0467647059,13.1230294 C0.0467647059,14.8934485 0.379191176,16.5861397 1.04426471,18.2022426 C1.70911765,19.8178897 2.60779412,21.2103824 3.74007353,22.3806324 C4.87235294,23.5506544 6.22036765,24.4790588 7.78389706,25.1663015 C9.34764706,25.8535441 10.9859559,26.1970515 12.6992647,26.1970515 C15.3355147,26.1970515 17.7258088,25.4291176 19.8703676,23.8939338 L26.0347059,30.2450588 C26.4659559,30.7155294 27.0046324,30.9507647 27.6520588,30.9507647 C28.2871324,30.9507647 28.8291176,30.7187206 29.2784559,30.2544044 C29.7277941,29.7900882 29.9523529,29.2300368 29.9523529,28.5737941 C29.9523529,27.9175515 29.7311029,27.3606912 29.2875,26.9027574 L29.2875,26.9027574 Z M18.3875735,19.0004926 C16.8119118,20.6286765 14.9159559,21.4426544 12.6992647,21.4426544 C10.4827941,21.4426544 8.58683824,20.6284485 7.01117647,19.0004926 C5.43551471,17.3723088 4.64779412,15.4133824 4.64779412,13.1228015 C4.64779412,10.8324485 5.43573529,8.87306618 7.01117647,7.24511029 C8.58661765,5.61692647 10.4827941,4.80294853 12.6992647,4.80294853 C14.9157353,4.80294853 16.8116912,5.61715441 18.3875735,7.24511029 C19.9632353,8.87306618 20.7511765,10.8324485 20.7511765,13.1228015 C20.7511765,15.4133824 19.9630147,17.3723088 18.3875735,19.0004926 L18.3875735,19.0004926 Z" id="mag" fill="#5CBF8E"></path>
                        </g>
                    </g>
                </g>
            </g>
        </g>
    </g>
</svg>